<svg xmlns="http://www.w3.org/2000/svg" viewBox="0 0 108.94 34.39"><defs><style>.cls-1{isolation:isolate;}.cls-2{fill:#fff;}.cls-3{fill:#eee;}.cls-4{fill:#028cbc;}.cls-5{fill:#f7f7f7;}.cls-6,.cls-7{fill:#00a1e9;}.cls-6{mix-blend-mode:soft-light;}</style></defs><g class="cls-1"><g id="Layer_1" data-name="Layer 1"><path class="cls-2" d="M46.16,5.28h2.73a.29.29,0,0,1,.2.07.25.25,0,0,1,.08.18V19.64a.25.25,0,0,1-.08.18.35.35,0,0,1-.2.07H46.16a.35.35,0,0,1-.2-.07.25.25,0,0,1-.08-.18V10.43s0-.08-.05-.08a.12.12,0,0,0-.09.06l-2.47,3.47a.38.38,0,0,1-.33.16H41.56a.36.36,0,0,1-.32-.16l-2.47-3.47s-.07-.06-.1-.05,0,0,0,.09v9.19a.23.23,0,0,1-.09.18.32.32,0,0,1-.19.07H35.62a.32.32,0,0,1-.2-.07.22.22,0,0,1-.08-.18V5.53a.22.22,0,0,1,.08-.18.27.27,0,0,1,.2-.07h2.73a.36.36,0,0,1,.32.16l3.5,4.87c0,.08.09.08.14,0l3.52-4.87A.38.38,0,0,1,46.16,5.28Z" transform="translate(-4.42 0.2)"/><path class="cls-2" d="M52.1,19.82a.23.23,0,0,1-.09-.18V5.53a.23.23,0,0,1,.09-.18.26.26,0,0,1,.19-.07H55a.27.27,0,0,1,.2.07.22.22,0,0,1,.08.18V19.64a.22.22,0,0,1-.08.18.32.32,0,0,1-.2.07H52.29A.32.32,0,0,1,52.1,19.82Z" transform="translate(-4.42 0.2)"/><path class="cls-2" d="M66.78,19.7l-2.92-5.78a.13.13,0,0,0-.14-.08H61.55c-.07,0-.11,0-.11.1v5.7a.25.25,0,0,1-.08.18.35.35,0,0,1-.2.07H58.43a.32.32,0,0,1-.2-.07.25.25,0,0,1-.08-.18V5.53a.25.25,0,0,1,.08-.18.27.27,0,0,1,.2-.07H65.1a6,6,0,0,1,2.62.54,4.05,4.05,0,0,1,1.75,1.54,4.29,4.29,0,0,1,.62,2.32,3.79,3.79,0,0,1-.79,2.43,4.16,4.16,0,0,1-2.22,1.43c-.08,0-.1.08-.07.15l3.18,5.91a.24.24,0,0,1,0,.12c0,.11-.08.17-.25.17H67.11A.33.33,0,0,1,66.78,19.7ZM61.44,7.91v3.57c0,.07,0,.1.11.1h3.06a2.39,2.39,0,0,0,1.6-.52,1.8,1.8,0,0,0,0-2.72,2.35,2.35,0,0,0-1.6-.54H61.55A.1.1,0,0,0,61.44,7.91Z" transform="translate(-4.42 0.2)"/><path class="cls-2" d="M81.1,19.7l-2.91-5.78a.15.15,0,0,0-.14-.08H75.88c-.08,0-.12,0-.12.1v5.7a.25.25,0,0,1-.08.18.35.35,0,0,1-.2.07H72.75a.35.35,0,0,1-.2-.07.25.25,0,0,1-.08-.18V5.53a.25.25,0,0,1,.08-.18.29.29,0,0,1,.2-.07h6.67a6.06,6.06,0,0,1,2.63.54A4.17,4.17,0,0,1,83.8,7.36a4.37,4.37,0,0,1,.61,2.32,3.79,3.79,0,0,1-.79,2.43,4.18,4.18,0,0,1-2.21,1.43c-.08,0-.11.08-.07.15l3.17,5.91a.24.24,0,0,1,0,.12c0,.11-.08.17-.25.17H81.43A.33.33,0,0,1,81.1,19.7ZM75.76,7.91v3.57c0,.07,0,.1.12.1h3.05a2.37,2.37,0,0,0,1.6-.52,1.8,1.8,0,0,0,0-2.72,2.33,2.33,0,0,0-1.6-.54H75.88C75.8,7.8,75.76,7.84,75.76,7.91Z" transform="translate(-4.42 0.2)"/><path class="cls-2" d="M89.39,19.45a5.17,5.17,0,0,1-2.15-1.87,4.94,4.94,0,0,1-.77-2.76V10.35a4.85,4.85,0,0,1,.77-2.73,5.06,5.06,0,0,1,2.15-1.85,8.18,8.18,0,0,1,6.44,0A5,5,0,0,1,98,7.62a4.93,4.93,0,0,1,.77,2.73v4.47A5.06,5.06,0,0,1,98,17.59a5,5,0,0,1-2.16,1.87,7.42,7.42,0,0,1-3.23.66A7.28,7.28,0,0,1,89.39,19.45Zm5.29-2.59a2.49,2.49,0,0,0,.79-1.94V10.33a2.55,2.55,0,0,0-.78-1.95,2.89,2.89,0,0,0-2.09-.74,2.85,2.85,0,0,0-2.06.74,2.55,2.55,0,0,0-.78,1.95v4.59a2.52,2.52,0,0,0,.78,1.94,2.88,2.88,0,0,0,2.06.73A2.93,2.93,0,0,0,94.68,16.86Z" transform="translate(-4.42 0.2)"/><path class="cls-2" d="M109.91,19.7,107,13.92a.13.13,0,0,0-.14-.08h-2.17c-.07,0-.11,0-.11.1v5.7a.25.25,0,0,1-.08.18.35.35,0,0,1-.2.07h-2.73a.32.32,0,0,1-.2-.07.25.25,0,0,1-.08-.18V5.53a.25.25,0,0,1,.08-.18.27.27,0,0,1,.2-.07h6.67a6,6,0,0,1,2.62.54,4.05,4.05,0,0,1,1.75,1.54,4.29,4.29,0,0,1,.62,2.32,3.79,3.79,0,0,1-.79,2.43,4.16,4.16,0,0,1-2.22,1.43c-.07,0-.1.08-.07.15l3.18,5.91a.24.24,0,0,1,0,.12c0,.11-.08.17-.25.17h-2.87A.33.33,0,0,1,109.91,19.7ZM104.57,7.91v3.57c0,.07,0,.1.11.1h3.06a2.39,2.39,0,0,0,1.6-.52,1.8,1.8,0,0,0,0-2.72,2.35,2.35,0,0,0-1.6-.54h-3.06A.1.1,0,0,0,104.57,7.91Z" transform="translate(-4.42 0.2)"/><path class="cls-3" d="M42.49,24.55v.27q0,.09-.15.09h-3s-.06,0-.06,0V31.2c0,.06-.05.1-.15.1h-.5c-.11,0-.16,0-.16-.1V25s0,0-.06,0H35.49q-.15,0-.15-.09v-.27c0-.06,0-.1.15-.1h6.85C42.44,24.45,42.49,24.49,42.49,24.55Z" transform="translate(-4.42 0.2)"/><path class="cls-3" d="M50.87,31.23l-2.33-3.11a.06.06,0,0,0-.06,0H45.61s-.06,0-.06,0V31.2c0,.06,0,.1-.15.1h-.5c-.1,0-.15,0-.15-.1V24.55c0-.06,0-.1.15-.1h3.83a3.68,3.68,0,0,1,2.05.51,1.54,1.54,0,0,1,.79,1.33,1.45,1.45,0,0,1-.6,1.17,3,3,0,0,1-1.59.59c-.05,0-.07,0-.05.05l2.33,3.08a.07.07,0,0,1,0,.05s0,.07-.12.07h-.5A.22.22,0,0,1,50.87,31.23ZM45.55,25v2.67s0,0,.06,0h3a2.8,2.8,0,0,0,1.53-.38,1.14,1.14,0,0,0,.58-1,1.16,1.16,0,0,0-.58-1,2.8,2.8,0,0,0-1.53-.38h-3S45.55,24.93,45.55,25Z" transform="translate(-4.42 0.2)"/><path class="cls-3" d="M60.7,31.22l-.65-1.3a.06.06,0,0,0-.06,0H55.25a.06.06,0,0,0-.06,0l-.63,1.3a.21.21,0,0,1-.19.08h-.53c-.11,0-.15,0-.12-.11l3.37-6.66a.19.19,0,0,1,.18-.08H58a.19.19,0,0,1,.18.08l3.38,6.66,0,0s0,.07-.14.07h-.51A.21.21,0,0,1,60.7,31.22Zm-5.26-1.78.06,0h4.25l0,0s0,0,0,0l-2.14-4.25s0,0-.05,0,0,0,0,0l-2.14,4.25A0,0,0,0,0,55.44,29.44Z" transform="translate(-4.42 0.2)"/><path class="cls-3" d="M63.65,31.2V24.55c0-.06.05-.1.15-.1h3.52a4.58,4.58,0,0,1,2.31.5,1.49,1.49,0,0,1,.85,1.34v3.17a1.49,1.49,0,0,1-.85,1.34,4.58,4.58,0,0,1-2.31.5H63.8C63.7,31.3,63.65,31.26,63.65,31.2Zm.87-.36h2.85a3.12,3.12,0,0,0,1.68-.39,1.23,1.23,0,0,0,.63-1.05v-3a1.2,1.2,0,0,0-.62-1.05,3.13,3.13,0,0,0-1.69-.39H64.52s-.07,0-.07,0V30.8S64.47,30.84,64.52,30.84Z" transform="translate(-4.42 0.2)"/><path class="cls-3" d="M73,31.2V24.55c0-.06,0-.1.15-.1h.5c.11,0,.16,0,.16.1V31.2c0,.06,0,.1-.16.1h-.5C73.08,31.3,73,31.26,73,31.2Z" transform="translate(-4.42 0.2)"/><path class="cls-3" d="M83.51,24.45H84c.1,0,.15,0,.15.1V31.2c0,.06,0,.1-.15.1h-.5a.34.34,0,0,1-.19-.07l-5.49-5.74a0,0,0,0,0,0,0,0,0,0,0,0,0,0v5.7c0,.06,0,.1-.15.1h-.5c-.1,0-.15,0-.15-.1V24.55c0-.06,0-.1.15-.1h.52a.29.29,0,0,1,.18.07l5.48,5.74s0,0,0,0,0,0,0,0v-5.7C83.36,24.49,83.41,24.45,83.51,24.45Z" transform="translate(-4.42 0.2)"/><path class="cls-3" d="M88.56,31.11a2.78,2.78,0,0,1-1.22-.74,1.55,1.55,0,0,1-.43-1.09V26.47a1.56,1.56,0,0,1,.43-1.1,2.87,2.87,0,0,1,1.22-.74,6,6,0,0,1,1.82-.25,5.8,5.8,0,0,1,1.8.25,3.06,3.06,0,0,1,1.22.72,1.5,1.5,0,0,1,.43,1.06v.14q0,.09-.15.09h-.5q-.15,0-.15-.09v-.13a1.33,1.33,0,0,0-.73-1.15,3.74,3.74,0,0,0-1.92-.44,3.65,3.65,0,0,0-1.93.45,1.34,1.34,0,0,0-.74,1.17V29.3a1.33,1.33,0,0,0,.74,1.17,4.43,4.43,0,0,0,3.85,0A1.27,1.27,0,0,0,93,29.36v-1s0,0-.07,0H90.6c-.1,0-.16,0-.16-.09V28c0-.06.06-.09.16-.09h3.08q.15,0,.15.09v1.27a1.74,1.74,0,0,1-.94,1.56,4.81,4.81,0,0,1-2.51.58A5.66,5.66,0,0,1,88.56,31.11Z" transform="translate(-4.42 0.2)"/><polygon class="cls-4" points="28.16 34.39 8 30.47 8 10.31 28.16 6.39 28.16 34.39"/><polygon class="cls-5" points="14.28 25.51 13.5 25.39 13.5 21.39 14.28 21.42 14.28 25.51"/><polygon class="cls-5" points="15.95 25.76 15.1 25.63 15.1 20.41 15.95 20.42 15.95 25.76"/><polygon class="cls-5" points="17.77 26.03 16.84 25.89 16.84 19.34 17.77 19.33 17.77 26.03"/><polygon class="cls-5" points="19.78 26.33 18.75 26.18 18.75 18.18 19.78 18.13 19.78 26.33"/><polygon class="cls-5" points="21.98 26.66 20.85 26.49 20.85 16.89 21.98 16.81 21.98 26.66"/><polygon class="cls-5" points="24.43 27.02 23.18 26.84 23.18 15.47 24.43 15.35 24.43 27.02"/><polygon class="cls-5" points="13.5 20.89 14.57 20.91 14.56 20.92 14.54 19.66 14.54 19.63 14.57 19.63 16.23 19.6 16.18 19.65 16.16 18.39 16.16 18.33 16.23 18.32 18.14 18.23 18.05 18.32 18.03 16.86 18.03 16.75 18.14 16.74 20.1 16.57 19.97 16.71 19.95 15.13 19.95 14.99 20.1 14.97 22.55 14.67 22.38 14.86 22.35 13.03 22.35 12.85 22.54 12.81 23.77 12.61 23.84 13.08 22.61 13.25 22.79 13.03 22.77 14.86 22.77 15.04 22.59 15.06 20.13 15.29 20.28 15.13 20.26 16.71 20.25 16.85 20.13 16.86 18.15 16.97 18.26 16.86 18.24 18.32 18.24 18.41 18.15 18.42 16.23 18.46 16.3 18.39 16.29 19.65 16.28 19.7 16.23 19.7 14.57 19.69 14.61 19.66 14.59 20.92 14.59 20.93 14.57 20.93 13.5 20.89"/><path class="cls-5" d="M29.15,12.51a4.82,4.82,0,0,0-1.2.93l.16-.77L27.74,12A4.52,4.52,0,0,0,29.15,12.51Z" transform="translate(-4.42 0.2)"/><polygon class="cls-6" points="28 34.25 28 34.39 8 30.5 8 10.82 28 34.25"/><polygon class="cls-2" points="21.42 7.11 21.42 29.78 7.84 27.15 7.99 10.82 21.42 7.11"/><polygon class="cls-7" points="20 0 20 27.78 0 23.89 0 3.89 20 0"/><polygon class="cls-2" points="4.28 19.51 3.5 19.39 3.5 15.39 4.28 15.42 4.28 19.51"/><polygon class="cls-2" points="5.95 19.76 5.1 19.63 5.1 14.41 5.95 14.42 5.95 19.76"/><polygon class="cls-2" points="7.78 20.03 6.84 19.89 6.84 13.35 7.78 13.33 7.78 20.03"/><polygon class="cls-2" points="9.78 20.33 8.75 20.18 8.75 12.18 9.78 12.13 9.78 20.33"/><polygon class="cls-2" points="11.98 20.66 10.85 20.49 10.85 10.89 11.98 10.81 11.98 20.66"/><polygon class="cls-2" points="14.43 21.02 13.18 20.84 13.18 9.47 14.43 9.35 14.43 21.02"/><polygon class="cls-2" points="3.5 14.89 4.57 14.9 4.56 14.92 4.54 13.66 4.54 13.63 4.57 13.63 6.23 13.6 6.18 13.65 6.16 12.39 6.16 12.33 6.23 12.32 8.14 12.22 8.05 12.32 8.03 10.86 8.03 10.75 8.13 10.74 10.1 10.57 9.97 10.71 9.95 9.13 9.95 8.99 10.1 8.97 12.55 8.67 12.38 8.86 12.35 7.03 12.35 6.84 12.54 6.81 13.77 6.61 13.84 7.08 12.61 7.25 12.79 7.03 12.77 8.86 12.77 9.04 12.59 9.06 10.13 9.29 10.28 9.13 10.26 10.71 10.26 10.85 10.13 10.86 8.15 10.97 8.26 10.86 8.24 12.32 8.24 12.41 8.15 12.42 6.23 12.46 6.3 12.39 6.29 13.65 6.28 13.7 6.23 13.7 4.57 13.69 4.61 13.66 4.59 14.92 4.59 14.93 4.57 14.93 3.5 14.89"/><path class="cls-2" d="M19.15,6.51a4.82,4.82,0,0,0-1.2.93l.16-.77L17.74,6A4.52,4.52,0,0,0,19.15,6.51Z" transform="translate(-4.42 0.2)"/><polygon class="cls-6" points="20 27.64 20 27.78 0 23.89 0 4.21 20 27.64"/></g></g></svg>